<?xml version="1.0" encoding="UTF-8"?>
<svg xmlns="http://www.w3.org/2000/svg" xmlns:xlink="http://www.w3.org/1999/xlink" width="285.2pt" height="89.3pt" viewBox="0 0 285.2 89.3" version="1.1">
<defs>
<clipPath id="clip1">
  <path d="M 39 57 L 72 57 L 72 89.300781 L 39 89.300781 Z M 39 57 "/>
</clipPath>
<clipPath id="clip2">
  <path d="M 0 48 L 39 48 L 39 89.300781 L 0 89.300781 Z M 0 48 "/>
</clipPath>
<clipPath id="clip3">
  <path d="M 255 48 L 285.199219 48 L 285.199219 89 L 255 89 Z M 255 48 "/>
</clipPath>
</defs>
<g id="surface1">
<path style=" stroke:none;fill-rule:evenodd;fill:rgb(0%,61.914063%,87.889099%);fill-opacity:1;" d="M 41.597656 38.804688 C 41.15625 38.804688 40.71875 38.878906 40.292969 39.011719 C 38.058594 39.734375 36.828125 42.136719 37.546875 44.371094 C 38.117188 46.132813 39.742188 47.320313 41.597656 47.320313 C 42.039063 47.320313 42.476563 47.253906 42.902344 47.113281 C 45.136719 46.394531 46.367188 43.992188 45.648438 41.757813 C 45.078125 39.992188 43.453125 38.804688 41.597656 38.804688 Z M 41.597656 50.820313 C 38.21875 50.820313 35.253906 48.660156 34.214844 45.445313 C 32.902344 41.378906 35.148438 36.992188 39.21875 35.679688 C 39.992188 35.433594 40.792969 35.304688 41.597656 35.304688 C 44.976563 35.304688 47.941406 37.464844 48.980469 40.683594 C 50.292969 44.753906 48.046875 49.132813 43.976563 50.445313 C 43.203125 50.695313 42.402344 50.820313 41.597656 50.820313 Z M 41.597656 50.820313 "/>
<path style=" stroke:none;fill-rule:evenodd;fill:rgb(0%,61.914063%,87.889099%);fill-opacity:1;" d="M 48.710938 62.855469 L 42.300781 49.558594 L 45.453125 48.039063 L 51.863281 61.339844 Z M 48.710938 62.855469 "/>
<path style=" stroke:none;fill-rule:evenodd;fill:rgb(0%,61.914063%,87.889099%);fill-opacity:1;" d="M 108.5 3.933594 C 107.46875 3.933594 106.421875 4.019531 105.394531 4.1875 C 95.148438 5.886719 88.191406 15.609375 89.886719 25.855469 C 91.402344 34.992188 99.207031 41.621094 108.449219 41.621094 C 109.480469 41.621094 110.527344 41.535156 111.554688 41.367188 C 116.519531 40.542969 120.867188 37.839844 123.796875 33.742188 C 126.726563 29.648438 127.886719 24.664063 127.0625 19.699219 C 125.550781 10.5625 117.742188 3.933594 108.5 3.933594 Z M 108.449219 45.621094 C 97.242188 45.621094 87.777344 37.589844 85.941406 26.511719 C 83.886719 14.089844 92.316406 2.300781 104.742188 0.242188 C 105.984375 0.0351563 107.25 -0.0664063 108.5 -0.0664063 C 119.707031 -0.0664063 129.175781 7.96875 131.011719 19.042969 C 132.007813 25.0625 130.601563 31.109375 127.046875 36.070313 C 123.496094 41.03125 118.226563 44.3125 112.207031 45.3125 C 110.964844 45.519531 109.699219 45.621094 108.449219 45.621094 Z M 108.449219 45.621094 "/>
<g clip-path="url(#clip1)" clip-rule="nonzero">
<path style=" stroke:none;fill-rule:evenodd;fill:rgb(0%,61.914063%,87.889099%);fill-opacity:1;" d="M 55.492188 61.902344 C 54.847656 61.902344 54.199219 61.960938 53.5625 62.0625 C 47.203125 63.117188 42.890625 69.144531 43.941406 75.503906 C 44.882813 81.167969 49.722656 85.28125 55.453125 85.28125 C 56.09375 85.28125 56.742188 85.226563 57.378906 85.125 C 60.460938 84.609375 63.15625 82.933594 64.972656 80.394531 C 66.792969 77.855469 67.511719 74.761719 67 71.679688 C 66.0625 66.015625 61.222656 61.902344 55.492188 61.902344 Z M 55.453125 89.28125 C 47.757813 89.28125 41.257813 83.761719 39.996094 76.15625 C 38.582031 67.621094 44.375 59.53125 52.90625 58.117188 C 53.761719 57.976563 54.628906 57.902344 55.492188 57.902344 C 63.1875 57.902344 69.6875 63.421875 70.945313 71.027344 C 71.632813 75.160156 70.664063 79.3125 68.226563 82.722656 C 65.789063 86.128906 62.167969 88.382813 58.035156 89.066406 C 57.179688 89.210938 56.3125 89.28125 55.453125 89.28125 Z M 55.453125 89.28125 "/>
</g>
<path style=" stroke:none;fill-rule:evenodd;fill:rgb(0%,61.914063%,87.889099%);fill-opacity:1;" d="M 65.5 63.207031 L 62.972656 60.101563 L 91.308594 37.011719 L 93.835938 40.113281 Z M 65.5 63.207031 "/>
<g clip-path="url(#clip2)" clip-rule="nonzero">
<path style=" stroke:none;fill-rule:evenodd;fill:rgb(43.138123%,43.920898%,44.309998%);fill-opacity:1;" d="M 38.097656 56.332031 L 35.027344 58.6875 C 33.332031 56.480469 31.296875 54.808594 28.925781 53.667969 C 26.550781 52.53125 23.941406 51.964844 21.101563 51.964844 C 17.992188 51.964844 15.117188 52.710938 12.46875 54.199219 C 9.824219 55.691406 7.773438 57.695313 6.3125 60.214844 C 4.859375 62.726563 4.132813 65.554688 4.132813 68.695313 C 4.132813 73.441406 5.757813 77.40625 9.015625 80.582031 C 12.273438 83.757813 16.378906 85.347656 21.339844 85.347656 C 26.792969 85.347656 31.355469 83.210938 35.027344 78.941406 L 38.097656 81.269531 C 36.15625 83.742188 33.734375 85.652344 30.832031 87.003906 C 27.925781 88.351563 24.683594 89.027344 21.101563 89.027344 C 14.289063 89.027344 8.914063 86.757813 4.976563 82.222656 C 1.675781 78.390625 0.0273438 73.769531 0.0273438 68.351563 C 0.0273438 62.648438 2.027344 57.855469 6.023438 53.964844 C 10.019531 50.070313 15.027344 48.128906 21.046875 48.128906 C 24.683594 48.128906 27.964844 48.84375 30.898438 50.28125 C 33.824219 51.71875 36.226563 53.738281 38.097656 56.332031 Z M 38.097656 56.332031 "/>
</g>
<path style=" stroke:none;fill-rule:evenodd;fill:rgb(43.138123%,43.920898%,44.309998%);fill-opacity:1;" d="M 77.851563 59.242188 L 81.558594 59.242188 L 81.558594 64.40625 C 83.039063 62.429688 84.683594 60.949219 86.484375 59.972656 C 88.28125 58.992188 90.242188 58.503906 92.359375 58.503906 C 94.511719 58.503906 96.425781 59.050781 98.09375 60.140625 C 99.761719 61.238281 100.992188 62.714844 101.785156 64.566406 C 102.578125 66.417969 102.976563 69.304688 102.976563 73.222656 L 102.976563 88.046875 L 99.269531 88.046875 L 99.269531 74.308594 C 99.269531 70.988281 99.132813 68.773438 98.859375 67.660156 C 98.429688 65.753906 97.605469 64.324219 96.386719 63.359375 C 95.167969 62.398438 93.578125 61.917969 91.621094 61.917969 C 89.378906 61.917969 87.371094 62.65625 85.597656 64.140625 C 83.824219 65.628906 82.652344 67.460938 82.089844 69.648438 C 81.734375 71.082031 81.558594 73.691406 81.558594 77.484375 L 81.558594 88.046875 L 77.851563 88.046875 Z M 77.851563 59.242188 "/>
<path style=" stroke:none;fill-rule:evenodd;fill:rgb(43.138123%,43.920898%,44.309998%);fill-opacity:1;" d="M 109.867188 59.242188 L 113.574219 59.242188 L 113.574219 64.40625 C 115.054688 62.429688 116.699219 60.949219 118.5 59.972656 C 120.296875 58.992188 122.257813 58.503906 124.375 58.503906 C 126.527344 58.503906 128.441406 59.050781 130.105469 60.140625 C 131.773438 61.238281 133.003906 62.714844 133.800781 64.566406 C 134.59375 66.417969 134.992188 69.304688 134.992188 73.222656 L 134.992188 88.046875 L 131.285156 88.046875 L 131.285156 74.308594 C 131.285156 70.988281 131.148438 68.773438 130.871094 67.660156 C 130.445313 65.753906 129.621094 64.324219 128.402344 63.359375 C 127.183594 62.398438 125.59375 61.917969 123.636719 61.917969 C 121.394531 61.917969 119.386719 62.65625 117.613281 64.140625 C 115.839844 65.628906 114.667969 67.460938 114.105469 69.648438 C 113.75 71.082031 113.574219 73.691406 113.574219 77.484375 L 113.574219 88.046875 L 109.867188 88.046875 Z M 109.867188 59.242188 "/>
<path style=" stroke:none;fill-rule:evenodd;fill:rgb(43.138123%,43.920898%,44.309998%);fill-opacity:1;" d="M 165.132813 70.734375 C 164.640625 68.757813 163.917969 67.175781 162.972656 65.992188 C 162.027344 64.8125 160.777344 63.859375 159.222656 63.136719 C 157.667969 62.410156 156.03125 62.050781 154.320313 62.050781 C 151.488281 62.050781 149.0625 62.964844 147.027344 64.777344 C 145.542969 66.101563 144.421875 68.089844 143.660156 70.734375 Z M 165.132813 78.488281 L 168.257813 80.128906 C 167.234375 82.144531 166.050781 83.769531 164.707031 85.003906 C 163.363281 86.238281 161.855469 87.179688 160.175781 87.820313 C 158.496094 88.464844 156.597656 88.789063 154.480469 88.789063 C 149.777344 88.789063 146.105469 87.25 143.453125 84.171875 C 140.804688 81.089844 139.480469 77.609375 139.480469 73.722656 C 139.480469 70.070313 140.601563 66.816406 142.84375 63.960938 C 145.6875 60.320313 149.496094 58.503906 154.265625 58.503906 C 159.175781 58.503906 163.097656 60.363281 166.03125 64.089844 C 168.113281 66.71875 169.175781 70.003906 169.210938 73.9375 L 143.292969 73.9375 C 143.363281 77.28125 144.429688 80.023438 146.5 82.167969 C 148.566406 84.304688 151.117188 85.375 154.160156 85.375 C 155.625 85.375 157.054688 85.117188 158.441406 84.609375 C 159.828125 84.097656 161.007813 83.421875 161.980469 82.582031 C 162.949219 81.734375 164 80.375 165.132813 78.488281 Z M 165.132813 78.488281 "/>
<path style=" stroke:none;fill-rule:evenodd;fill:rgb(43.138123%,43.920898%,44.309998%);fill-opacity:1;" d="M 203.023438 65.226563 L 200.089844 67.054688 C 197.550781 63.683594 194.082031 61.996094 189.695313 61.996094 C 186.1875 61.996094 183.273438 63.128906 180.953125 65.382813 C 178.636719 67.640625 177.476563 70.378906 177.476563 73.605469 C 177.476563 75.707031 178.011719 77.679688 179.078125 79.527344 C 180.144531 81.378906 181.609375 82.816406 183.46875 83.839844 C 185.324219 84.863281 187.410156 85.375 189.722656 85.375 C 193.953125 85.375 197.40625 83.6875 200.089844 80.316406 L 203.023438 82.25 C 201.648438 84.324219 199.796875 85.933594 197.480469 87.074219 C 195.15625 88.214844 192.515625 88.789063 189.550781 88.789063 C 184.996094 88.789063 181.21875 87.339844 178.21875 84.445313 C 175.21875 81.550781 173.71875 78.03125 173.71875 73.882813 C 173.71875 71.097656 174.421875 68.503906 175.820313 66.113281 C 177.226563 63.722656 179.152344 61.855469 181.609375 60.511719 C 184.0625 59.171875 186.804688 58.503906 189.839844 58.503906 C 191.746094 58.503906 193.585938 58.792969 195.359375 59.378906 C 197.136719 59.960938 198.640625 60.71875 199.875 61.652344 C 201.109375 62.589844 202.160156 63.78125 203.023438 65.226563 Z M 203.023438 65.226563 "/>
<path style=" stroke:none;fill-rule:evenodd;fill:rgb(43.138123%,43.920898%,44.309998%);fill-opacity:1;" d="M 210.273438 48.546875 L 213.980469 48.546875 L 213.980469 59.242188 L 219.855469 59.242188 L 219.855469 62.445313 L 213.980469 62.445313 L 213.980469 88.046875 L 210.273438 88.046875 L 210.273438 62.445313 L 205.21875 62.445313 L 205.21875 59.242188 L 210.273438 59.242188 Z M 210.273438 48.546875 "/>
<path style=" stroke:none;fill-rule:evenodd;fill:rgb(43.138123%,43.920898%,44.309998%);fill-opacity:1;" d="M 247.566406 70.734375 C 247.070313 68.757813 246.351563 67.175781 245.402344 65.992188 C 244.460938 64.8125 243.207031 63.859375 241.65625 63.136719 C 240.097656 62.410156 238.464844 62.050781 236.75 62.050781 C 233.921875 62.050781 231.492188 62.964844 229.460938 64.777344 C 227.976563 66.101563 226.851563 68.089844 226.09375 70.734375 Z M 247.566406 78.488281 L 250.691406 80.128906 C 249.664063 82.144531 248.480469 83.769531 247.136719 85.003906 C 245.796875 86.238281 244.285156 87.179688 242.605469 87.820313 C 240.929688 88.464844 239.027344 88.789063 236.910156 88.789063 C 232.210938 88.789063 228.535156 87.25 225.886719 84.171875 C 223.234375 81.089844 221.910156 77.609375 221.910156 73.722656 C 221.910156 70.070313 223.03125 66.816406 225.277344 63.960938 C 228.121094 60.320313 231.929688 58.503906 236.695313 58.503906 C 241.609375 58.503906 245.527344 60.363281 248.464844 64.089844 C 250.546875 66.71875 251.605469 70.003906 251.640625 73.9375 L 225.722656 73.9375 C 225.796875 77.28125 226.863281 80.023438 228.929688 82.167969 C 231 84.304688 233.550781 85.375 236.589844 85.375 C 238.058594 85.375 239.484375 85.117188 240.871094 84.609375 C 242.257813 84.097656 243.4375 83.421875 244.410156 82.582031 C 245.382813 81.734375 246.433594 80.375 247.566406 78.488281 Z M 247.566406 78.488281 "/>
<g clip-path="url(#clip3)" clip-rule="nonzero">
<path style=" stroke:none;fill-rule:evenodd;fill:rgb(43.138123%,43.920898%,44.309998%);fill-opacity:1;" d="M 270.441406 62.074219 C 268.375 62.074219 266.472656 62.585938 264.726563 63.597656 C 262.980469 64.609375 261.59375 66.035156 260.5625 67.867188 C 259.53125 69.699219 259.015625 71.640625 259.015625 73.683594 C 259.015625 75.714844 259.535156 77.652344 260.574219 79.503906 C 261.617188 81.351563 263.011719 82.796875 264.765625 83.832031 C 266.519531 84.855469 268.402344 85.375 270.414063 85.375 C 272.441406 85.375 274.359375 84.863281 276.175781 83.839844 C 277.992188 82.816406 279.390625 81.433594 280.367188 79.6875 C 281.347656 77.941406 281.835938 75.976563 281.835938 73.792969 C 281.835938 70.460938 280.738281 67.675781 278.546875 65.433594 C 276.351563 63.195313 273.648438 62.074219 270.441406 62.074219 Z M 285.253906 48.128906 L 285.253906 88.046875 L 281.597656 88.046875 L 281.597656 83.097656 C 280.046875 84.984375 278.300781 86.40625 276.367188 87.359375 C 274.4375 88.3125 272.324219 88.789063 270.027344 88.789063 C 265.953125 88.789063 262.46875 87.3125 259.585938 84.355469 C 256.699219 81.398438 255.257813 77.800781 255.257813 73.566406 C 255.257813 69.417969 256.714844 65.871094 259.625 62.921875 C 262.535156 59.976563 266.039063 58.503906 270.136719 58.503906 C 272.5 58.503906 274.640625 59.003906 276.554688 60.011719 C 278.46875 61.019531 280.152344 62.527344 281.597656 64.539063 L 281.597656 48.128906 Z M 285.253906 48.128906 "/>
</g>
</g>
</svg>
